<?xml version="1.0" encoding="UTF-8" standalone="no"?>
<!DOCTYPE svg PUBLIC "-//W3C//DTD SVG 1.1//EN"
 "http://www.w3.org/Graphics/SVG/1.1/DTD/svg11.dtd">
<!-- Generated by graphviz version 14.1.4 (20260321.0153)
 -->
<!-- Title: G Pages: 1 -->
<svg width="2989pt" height="331pt"
 viewBox="0.00 0.00 2989.00 331.00" xmlns="http://www.w3.org/2000/svg" xmlns:xlink="http://www.w3.org/1999/xlink">
<g id="graph0" class="graph" transform="scale(1 1) rotate(0) translate(4 326.95)">
<title>G</title>
<polygon fill="white" stroke="none" points="-4,4 -4,-326.95 2985,-326.95 2985,4 -4,4"/>
<g id="clust1" class="cluster">
<title>cluster_G</title>
<path fill="#808080" fill-opacity="0.094118" stroke="black" d="M20,-8C20,-8 2961,-8 2961,-8 2967,-8 2973,-14 2973,-20 2973,-20 2973,-302.95 2973,-302.95 2973,-308.95 2967,-314.95 2961,-314.95 2961,-314.95 20,-314.95 20,-314.95 14,-314.95 8,-308.95 8,-302.95 8,-302.95 8,-20 8,-20 8,-14 14,-8 20,-8"/>
</g>
<g id="clust2" class="cluster">
<title>cluster_scripts__train_final_model</title>
<path fill="#808080" fill-opacity="0.094118" stroke="black" d="M2315,-109.98C2315,-109.98 2953,-109.98 2953,-109.98 2959,-109.98 2965,-115.98 2965,-121.98 2965,-121.98 2965,-196.47 2965,-196.47 2965,-202.47 2959,-208.47 2953,-208.47 2953,-208.47 2315,-208.47 2315,-208.47 2309,-208.47 2303,-202.47 2303,-196.47 2303,-196.47 2303,-121.98 2303,-121.98 2303,-115.98 2309,-109.98 2315,-109.98"/>
<text xml:space="preserve" text-anchor="middle" x="2634" y="-191.17" font-family="Times,serif" font-size="14.00">scripts.train_final_model</text>
</g>
<g id="clust3" class="cluster">
<title>cluster_src__weather</title>
<path fill="#808080" fill-opacity="0.094118" stroke="black" d="M28,-16C28,-16 1711,-16 1711,-16 1717,-16 1723,-22 1723,-28 1723,-28 1723,-294.95 1723,-294.95 1723,-300.95 1717,-306.95 1711,-306.95 1711,-306.95 28,-306.95 28,-306.95 22,-306.95 16,-300.95 16,-294.95 16,-294.95 16,-28 16,-28 16,-22 22,-16 28,-16"/>
<text xml:space="preserve" text-anchor="middle" x="869.5" y="-289.65" font-family="Times,serif" font-size="14.00">src.weather</text>
</g>
<g id="clust4" class="cluster">
<title>cluster_src__weather__load_stations</title>
<path fill="#808080" fill-opacity="0.094118" stroke="black" d="M1743,-109.98C1743,-109.98 2283,-109.98 2283,-109.98 2289,-109.98 2295,-115.98 2295,-121.98 2295,-121.98 2295,-196.47 2295,-196.47 2295,-202.47 2289,-208.47 2283,-208.47 2283,-208.47 1743,-208.47 1743,-208.47 1737,-208.47 1731,-202.47 1731,-196.47 1731,-196.47 1731,-121.98 1731,-121.98 1731,-115.98 1737,-109.98 1743,-109.98"/>
<text xml:space="preserve" text-anchor="middle" x="2013" y="-191.17" font-family="Times,serif" font-size="14.00">src.weather.load_stations</text>
</g>
<!-- scripts__train_final_model -->
<g id="node1" class="node">
<title>scripts__train_final_model</title>
<ellipse fill="#ffffff" fill-opacity="0.698039" stroke="black" cx="2007" cy="-245.46" rx="104.07" ry="18"/>
<text xml:space="preserve" text-anchor="middle" x="2007" y="-240.41" font-family="Times,serif" font-size="14.00" fill="#000000">scripts.train_final_model</text>
</g>
<!-- scripts__train_final_model__main -->
<g id="node9" class="node">
<title>scripts__train_final_model__main</title>
<ellipse fill="#ff9999" fill-opacity="0.698039" stroke="black" cx="2634" cy="-146.97" rx="322.62" ry="28.99"/>
<text xml:space="preserve" text-anchor="middle" x="2634" y="-150.17" font-family="Times,serif" font-size="14.00" fill="#000000">main</text>
<text xml:space="preserve" text-anchor="middle" x="2634" y="-133.67" font-family="Times,serif" font-size="14.00" fill="#000000">(/Users/alexwagner/Kod/GitHub/thesis_boogaloo/scripts/train_final_model.py:8)</text>
</g>
<!-- scripts__train_final_model&#45;&gt;scripts__train_final_model__main -->
<g id="edge1" class="edge">
<title>scripts__train_final_model&#45;&gt;scripts__train_final_model__main</title>
<path fill="none" stroke="#000000" d="M2058.61,-229.39C2077.73,-224.41 2099.7,-219.4 2120,-216.47 2198.81,-205.06 2219.86,-217.34 2299,-208.47 2365.63,-201 2438.98,-188.27 2500.03,-176.41"/>
<polygon fill="#000000" stroke="#000000" points="2500.65,-179.85 2509.79,-174.5 2499.31,-172.98 2500.65,-179.85"/>
</g>
<!-- src -->
<g id="node2" class="node">
<title>src</title>
<ellipse fill="#ffffff" fill-opacity="0.698039" stroke="black" cx="2156" cy="-245.46" rx="27" ry="18"/>
<text xml:space="preserve" text-anchor="middle" x="2156" y="-240.41" font-family="Times,serif" font-size="14.00" fill="#000000">src</text>
</g>
<!-- src__config -->
<g id="node3" class="node">
<title>src__config</title>
<ellipse fill="#ffffff" fill-opacity="0.698039" stroke="black" cx="2249" cy="-245.46" rx="47.77" ry="18"/>
<text xml:space="preserve" text-anchor="middle" x="2249" y="-240.41" font-family="Times,serif" font-size="14.00" fill="#000000">src.config</text>
</g>
<!-- src__data_prep -->
<g id="node4" class="node">
<title>src__data_prep</title>
<ellipse fill="#ffffff" fill-opacity="0.698039" stroke="black" cx="2375" cy="-245.46" rx="60.56" ry="18"/>
<text xml:space="preserve" text-anchor="middle" x="2375" y="-240.41" font-family="Times,serif" font-size="14.00" fill="#000000">src.data_prep</text>
</g>
<!-- src__features -->
<g id="node5" class="node">
<title>src__features</title>
<ellipse fill="#ffffff" fill-opacity="0.698039" stroke="black" cx="2507" cy="-245.46" rx="53.4" ry="18"/>
<text xml:space="preserve" text-anchor="middle" x="2507" y="-240.41" font-family="Times,serif" font-size="14.00" fill="#000000">src.features</text>
</g>
<!-- src__models -->
<g id="node6" class="node">
<title>src__models</title>
<ellipse fill="#ffffff" fill-opacity="0.698039" stroke="black" cx="2630" cy="-245.46" rx="51.35" ry="18"/>
<text xml:space="preserve" text-anchor="middle" x="2630" y="-240.41" font-family="Times,serif" font-size="14.00" fill="#000000">src.models</text>
</g>
<!-- src__visualisation -->
<g id="node7" class="node">
<title>src__visualisation</title>
<ellipse fill="#ffffff" fill-opacity="0.698039" stroke="black" cx="2770" cy="-245.46" rx="70.8" ry="18"/>
<text xml:space="preserve" text-anchor="middle" x="2770" y="-240.41" font-family="Times,serif" font-size="14.00" fill="#000000">src.visualisation</text>
</g>
<!-- src__weather -->
<g id="node8" class="node">
<title>src__weather</title>
<ellipse fill="#ffffff" fill-opacity="0.698039" stroke="black" cx="2912" cy="-245.46" rx="53.4" ry="18"/>
<text xml:space="preserve" text-anchor="middle" x="2912" y="-240.41" font-family="Times,serif" font-size="14.00" fill="#000000">src.weather</text>
</g>
<!-- src__weather__find_nearest_station -->
<g id="node10" class="node">
<title>src__weather__find_nearest_station</title>
<ellipse fill="#dd99ff" fill-opacity="0.698039" stroke="black" cx="298" cy="-146.97" rx="274.36" ry="28.99"/>
<text xml:space="preserve" text-anchor="middle" x="298" y="-150.17" font-family="Times,serif" font-size="14.00" fill="#000000">find_nearest_station</text>
<text xml:space="preserve" text-anchor="middle" x="298" y="-133.67" font-family="Times,serif" font-size="14.00" fill="#000000">(/Users/alexwagner/Kod/GitHub/thesis_boogaloo/src/weather.py:82)</text>
</g>
<!-- src__weather__haversine_distance -->
<g id="node13" class="node">
<title>src__weather__haversine_distance</title>
<ellipse fill="#dd99ff" fill-opacity="0.698039" stroke="black" cx="298" cy="-52.99" rx="274.36" ry="28.99"/>
<text xml:space="preserve" text-anchor="middle" x="298" y="-56.19" font-family="Times,serif" font-size="14.00" fill="#000000">haversine_distance</text>
<text xml:space="preserve" text-anchor="middle" x="298" y="-39.69" font-family="Times,serif" font-size="14.00" fill="#000000">(/Users/alexwagner/Kod/GitHub/thesis_boogaloo/src/weather.py:13)</text>
</g>
<!-- src__weather__find_nearest_station&#45;&gt;src__weather__haversine_distance -->
<g id="edge2" class="edge">
<title>src__weather__find_nearest_station&#45;&gt;src__weather__haversine_distance</title>
<path fill="none" stroke="#000000" d="M298,-117.63C298,-110.11 298,-101.85 298,-93.84"/>
<polygon fill="#000000" stroke="#000000" points="301.5,-93.92 298,-83.92 294.5,-93.92 301.5,-93.92"/>
</g>
<!-- src__weather__get_temperature -->
<g id="node11" class="node">
<title>src__weather__get_temperature</title>
<ellipse fill="#dd99ff" fill-opacity="0.698039" stroke="black" cx="865" cy="-245.46" rx="279.13" ry="28.99"/>
<text xml:space="preserve" text-anchor="middle" x="865" y="-248.66" font-family="Times,serif" font-size="14.00" fill="#000000">get_temperature</text>
<text xml:space="preserve" text-anchor="middle" x="865" y="-232.16" font-family="Times,serif" font-size="14.00" fill="#000000">(/Users/alexwagner/Kod/GitHub/thesis_boogaloo/src/weather.py:157)</text>
</g>
<!-- src__weather__get_temperature&#45;&gt;src__weather__find_nearest_station -->
<g id="edge3" class="edge">
<title>src__weather__get_temperature&#45;&gt;src__weather__find_nearest_station</title>
<path fill="none" stroke="#000000" d="M680.85,-223.3C647.87,-218.87 613.86,-213.87 582,-208.47 528.75,-199.42 470.32,-187.35 420.38,-176.38"/>
<polygon fill="#000000" stroke="#000000" points="421.2,-172.97 410.68,-174.23 419.69,-179.81 421.2,-172.97"/>
</g>
<!-- src__weather__get_temperatures_from_api -->
<g id="node12" class="node">
<title>src__weather__get_temperatures_from_api</title>
<ellipse fill="#dd99ff" fill-opacity="0.698039" stroke="black" cx="865" cy="-146.97" rx="274.36" ry="28.99"/>
<text xml:space="preserve" text-anchor="middle" x="865" y="-150.17" font-family="Times,serif" font-size="14.00" fill="#000000">get_temperatures_from_api</text>
<text xml:space="preserve" text-anchor="middle" x="865" y="-133.67" font-family="Times,serif" font-size="14.00" fill="#000000">(/Users/alexwagner/Kod/GitHub/thesis_boogaloo/src/weather.py:97)</text>
</g>
<!-- src__weather__get_temperature&#45;&gt;src__weather__get_temperatures_from_api -->
<g id="edge4" class="edge">
<title>src__weather__get_temperature&#45;&gt;src__weather__get_temperatures_from_api</title>
<path fill="none" stroke="#000000" d="M865,-216.03C865,-207.1 865,-197.07 865,-187.52"/>
<polygon fill="#000000" stroke="#000000" points="868.5,-187.71 865,-177.71 861.5,-187.71 868.5,-187.71"/>
</g>
<!-- src__weather__temp_at_time -->
<g id="node15" class="node">
<title>src__weather__temp_at_time</title>
<ellipse fill="#dd99ff" fill-opacity="0.698039" stroke="black" cx="1436" cy="-146.97" rx="279.13" ry="28.99"/>
<text xml:space="preserve" text-anchor="middle" x="1436" y="-150.17" font-family="Times,serif" font-size="14.00" fill="#000000">temp_at_time</text>
<text xml:space="preserve" text-anchor="middle" x="1436" y="-133.67" font-family="Times,serif" font-size="14.00" fill="#000000">(/Users/alexwagner/Kod/GitHub/thesis_boogaloo/src/weather.py:138)</text>
</g>
<!-- src__weather__get_temperature&#45;&gt;src__weather__temp_at_time -->
<g id="edge5" class="edge">
<title>src__weather__get_temperature&#45;&gt;src__weather__temp_at_time</title>
<path fill="none" stroke="#000000" d="M1048.76,-223.27C1081.86,-218.84 1116.01,-213.85 1148,-208.47 1201.98,-199.38 1261.22,-187.3 1311.86,-176.33"/>
<polygon fill="#000000" stroke="#000000" points="1312.36,-179.81 1321.39,-174.26 1310.87,-172.97 1312.36,-179.81"/>
</g>
<!-- src__weather__load_stations -->
<g id="node14" class="node">
<title>src__weather__load_stations</title>
<ellipse fill="#dd99ff" fill-opacity="0.698039" stroke="black" cx="1441" cy="-245.46" rx="274.36" ry="28.99"/>
<text xml:space="preserve" text-anchor="middle" x="1441" y="-248.66" font-family="Times,serif" font-size="14.00" fill="#000000">load_stations</text>
<text xml:space="preserve" text-anchor="middle" x="1441" y="-232.16" font-family="Times,serif" font-size="14.00" fill="#000000">(/Users/alexwagner/Kod/GitHub/thesis_boogaloo/src/weather.py:40)</text>
</g>
<!-- src__weather__load_stations__to_float -->
<g id="node16" class="node">
<title>src__weather__load_stations__to_float</title>
<ellipse fill="#cc65ff" fill-opacity="0.698039" stroke="black" cx="2013" cy="-146.97" rx="274.36" ry="28.99"/>
<text xml:space="preserve" text-anchor="middle" x="2013" y="-150.17" font-family="Times,serif" font-size="14.00" fill="#000000">to_float</text>
<text xml:space="preserve" text-anchor="middle" x="2013" y="-133.67" font-family="Times,serif" font-size="14.00" fill="#000000">(/Users/alexwagner/Kod/GitHub/thesis_boogaloo/src/weather.py:58)</text>
</g>
<!-- src__weather__load_stations&#45;&gt;src__weather__load_stations__to_float -->
<g id="edge6" class="edge">
<title>src__weather__load_stations&#45;&gt;src__weather__load_stations__to_float</title>
<path fill="none" stroke="#000000" d="M1625.18,-223.57C1659.12,-219.07 1694.18,-213.99 1727,-208.47 1780.85,-199.4 1839.96,-187.27 1890.4,-176.25"/>
<polygon fill="#000000" stroke="#000000" points="1890.86,-179.73 1899.87,-174.17 1889.36,-172.89 1890.86,-179.73"/>
</g>
</g>
</svg>
