<?xml version="1.0" encoding="UTF-8" standalone="no"?>
<!DOCTYPE svg PUBLIC "-//W3C//DTD SVG 1.1//EN"
 "http://www.w3.org/Graphics/SVG/1.1/DTD/svg11.dtd">
<!-- Generated by graphviz version 14.1.4 (20260321.0153)
 -->
<!-- Title: G Pages: 1 -->
<svg width="708pt" height="410pt"
 viewBox="0.00 0.00 708.00 410.00" xmlns="http://www.w3.org/2000/svg" xmlns:xlink="http://www.w3.org/1999/xlink">
<g id="graph0" class="graph" transform="scale(1 1) rotate(0) translate(4 406.25)">
<title>G</title>
<polygon fill="white" stroke="none" points="-4,4 -4,-406.25 703.5,-406.25 703.5,4 -4,4"/>
<g id="clust2" class="cluster">
<title>cluster_d68db66f</title>
<polygon fill="none" stroke="black" stroke-dasharray="1,5" points="84,-124.25 84,-201.25 441.88,-201.25 441.88,-124.25 84,-124.25"/>
<text xml:space="preserve" text-anchor="middle" x="262.94" y="-183.95" font-family="Times,serif" font-size="14.00">File: train_final_model</text>
</g>
<g id="clust3" class="cluster">
<title>cluster_d9280382</title>
<polygon fill="none" stroke="black" stroke-dasharray="1,5" points="54.38,-209.25 54.38,-394.25 691.5,-394.25 691.5,-209.25 54.38,-209.25"/>
<text xml:space="preserve" text-anchor="middle" x="372.94" y="-376.95" font-family="Times,serif" font-size="14.00">File: weather</text>
</g>
<!-- Legend -->
<g id="node1" class="node">
<title>Legend</title>
<polygon fill="none" stroke="black" points="1,-95 1,-113.5 265,-113.5 265,-95 1,-95"/>
<text xml:space="preserve" text-anchor="start" x="80.88" y="-99.75" font-family="Times,serif" font-size="14.00">Code2flow Legend</text>
<polygon fill="none" stroke="black" points="1,-1 1,-95 265,-95 265,-1 1,-1"/>
<polygon fill="none" stroke="black" points="3,-70.5 3,-93 213,-93 213,-70.5 3,-70.5"/>
<text xml:space="preserve" text-anchor="start" x="62.25" y="-77.25" font-family="Times,serif" font-size="14.00">Regular function</text>
<polygon fill="#cccccc" stroke="none" points="213,-70.5 213,-93 263,-93 263,-70.5 213,-70.5"/>
<polygon fill="none" stroke="black" points="213,-70.5 213,-93 263,-93 263,-70.5 213,-70.5"/>
<polygon fill="none" stroke="black" points="3,-48 3,-70.5 213,-70.5 213,-48 3,-48"/>
<text xml:space="preserve" text-anchor="start" x="14.25" y="-54.75" font-family="Times,serif" font-size="14.00">Trunk function (nothing calls this)</text>
<polygon fill="#966f33" stroke="none" points="213,-48 213,-70.5 263,-70.5 263,-48 213,-48"/>
<polygon fill="none" stroke="black" points="213,-48 213,-70.5 263,-70.5 263,-48 213,-48"/>
<polygon fill="none" stroke="black" points="3,-25.5 3,-48 213,-48 213,-25.5 3,-25.5"/>
<text xml:space="preserve" text-anchor="start" x="6" y="-32.25" font-family="Times,serif" font-size="14.00">Leaf function (this calls nothing else)</text>
<polygon fill="#6db33f" stroke="none" points="213,-25.5 213,-48 263,-48 263,-25.5 213,-25.5"/>
<polygon fill="none" stroke="black" points="213,-25.5 213,-48 263,-48 263,-25.5 213,-25.5"/>
<polygon fill="none" stroke="black" points="3,-3 3,-25.5 213,-25.5 213,-3 3,-3"/>
<text xml:space="preserve" text-anchor="start" x="72.38" y="-9.75" font-family="Times,serif" font-size="14.00">Function call</text>
<polygon fill="none" stroke="black" points="213,-3 213,-25.5 263,-25.5 263,-3 213,-3"/>
<text xml:space="preserve" text-anchor="start" x="230.88" y="-9.75" font-family="Times,serif" font-size="14.00">→</text>
<polygon fill="none" stroke="black" points="2,-2 2,-94 264,-94 264,-2 2,-2"/>
<polygon fill="none" stroke="black" points="0,0 0,-114.5 266,-114.5 266,0 0,0"/>
</g>
<!-- node_8d3fdb75 -->
<g id="node2" class="node">
<title>node_8d3fdb75</title>
<path fill="#966f33" stroke="black" d="M162,-168.25C162,-168.25 104,-168.25 104,-168.25 98,-168.25 92,-162.25 92,-156.25 92,-156.25 92,-144.25 92,-144.25 92,-138.25 98,-132.25 104,-132.25 104,-132.25 162,-132.25 162,-132.25 168,-132.25 174,-138.25 174,-144.25 174,-144.25 174,-156.25 174,-156.25 174,-162.25 168,-168.25 162,-168.25"/>
<text xml:space="preserve" text-anchor="middle" x="133" y="-145.2" font-family="Times,serif" font-size="14.00">0: (global)()</text>
</g>
<!-- node_e33e620e -->
<g id="node3" class="node">
<title>node_e33e620e</title>
<path fill="#6db33f" stroke="black" d="M421.88,-168.25C421.88,-168.25 378.88,-168.25 378.88,-168.25 372.88,-168.25 366.88,-162.25 366.88,-156.25 366.88,-156.25 366.88,-144.25 366.88,-144.25 366.88,-138.25 372.88,-132.25 378.88,-132.25 378.88,-132.25 421.88,-132.25 421.88,-132.25 427.88,-132.25 433.88,-138.25 433.88,-144.25 433.88,-144.25 433.88,-156.25 433.88,-156.25 433.88,-162.25 427.88,-168.25 421.88,-168.25"/>
<text xml:space="preserve" text-anchor="middle" x="400.38" y="-145.2" font-family="Times,serif" font-size="14.00">8: main()</text>
</g>
<!-- node_8d3fdb75&#45;&gt;node_e33e620e -->
<g id="edge1" class="edge">
<title>node_8d3fdb75&#45;&gt;node_e33e620e</title>
<path fill="none" stroke="#0072b2" stroke-width="2" d="M174.48,-150.25C174.48,-150.25 353.4,-150.25 353.4,-150.25"/>
<polygon fill="#0072b2" stroke="#0072b2" stroke-width="2" points="353.4,-153.75 363.4,-150.25 353.4,-146.75 353.4,-153.75"/>
</g>
<!-- node_178aceb2 -->
<g id="node4" class="node">
<title>node_178aceb2</title>
<path fill="#cccccc" stroke="black" d="M466.12,-253.25C466.12,-253.25 334.62,-253.25 334.62,-253.25 328.62,-253.25 322.62,-247.25 322.62,-241.25 322.62,-241.25 322.62,-229.25 322.62,-229.25 322.62,-223.25 328.62,-217.25 334.62,-217.25 334.62,-217.25 466.12,-217.25 466.12,-217.25 472.12,-217.25 478.12,-223.25 478.12,-229.25 478.12,-229.25 478.12,-241.25 478.12,-241.25 478.12,-247.25 472.12,-253.25 466.12,-253.25"/>
<text xml:space="preserve" text-anchor="middle" x="400.38" y="-230.2" font-family="Times,serif" font-size="14.00">82: find_nearest_station()</text>
</g>
<!-- node_b107d39d -->
<g id="node7" class="node">
<title>node_b107d39d</title>
<path fill="#6db33f" stroke="black" d="M671.5,-253.25C671.5,-253.25 546.75,-253.25 546.75,-253.25 540.75,-253.25 534.75,-247.25 534.75,-241.25 534.75,-241.25 534.75,-229.25 534.75,-229.25 534.75,-223.25 540.75,-217.25 546.75,-217.25 546.75,-217.25 671.5,-217.25 671.5,-217.25 677.5,-217.25 683.5,-223.25 683.5,-229.25 683.5,-229.25 683.5,-241.25 683.5,-241.25 683.5,-247.25 677.5,-253.25 671.5,-253.25"/>
<text xml:space="preserve" text-anchor="middle" x="609.12" y="-230.2" font-family="Times,serif" font-size="14.00">13: haversine_distance()</text>
</g>
<!-- node_178aceb2&#45;&gt;node_b107d39d -->
<g id="edge2" class="edge">
<title>node_178aceb2&#45;&gt;node_b107d39d</title>
<path fill="none" stroke="#56b4e9" stroke-width="2" d="M478.4,-235.25C478.4,-235.25 521.28,-235.25 521.28,-235.25"/>
<polygon fill="#56b4e9" stroke="#56b4e9" stroke-width="2" points="521.28,-238.75 531.28,-235.25 521.28,-231.75 521.28,-238.75"/>
</g>
<!-- node_ad335be4 -->
<g id="node5" class="node">
<title>node_ad335be4</title>
<path fill="#966f33" stroke="black" d="M191.62,-307.25C191.62,-307.25 74.38,-307.25 74.38,-307.25 68.38,-307.25 62.38,-301.25 62.38,-295.25 62.38,-295.25 62.38,-283.25 62.38,-283.25 62.38,-277.25 68.38,-271.25 74.38,-271.25 74.38,-271.25 191.62,-271.25 191.62,-271.25 197.62,-271.25 203.62,-277.25 203.62,-283.25 203.62,-283.25 203.62,-295.25 203.62,-295.25 203.62,-301.25 197.62,-307.25 191.62,-307.25"/>
<text xml:space="preserve" text-anchor="middle" x="133" y="-284.2" font-family="Times,serif" font-size="14.00">157: get_temperature()</text>
</g>
<!-- node_ad335be4&#45;&gt;node_178aceb2 -->
<g id="edge3" class="edge">
<title>node_ad335be4&#45;&gt;node_178aceb2</title>
<path fill="none" stroke="#f0e442" stroke-width="2" d="M188.5,-270.97C188.5,-255.3 188.5,-235.25 188.5,-235.25 188.5,-235.25 309.36,-235.25 309.36,-235.25"/>
<polygon fill="#f0e442" stroke="#f0e442" stroke-width="2" points="309.36,-238.75 319.36,-235.25 309.36,-231.75 309.36,-238.75"/>
</g>
<!-- node_01d0324b -->
<g id="node6" class="node">
<title>node_01d0324b</title>
<path fill="#6db33f" stroke="black" d="M486.75,-307.25C486.75,-307.25 314,-307.25 314,-307.25 308,-307.25 302,-301.25 302,-295.25 302,-295.25 302,-283.25 302,-283.25 302,-277.25 308,-271.25 314,-271.25 314,-271.25 486.75,-271.25 486.75,-271.25 492.75,-271.25 498.75,-277.25 498.75,-283.25 498.75,-283.25 498.75,-295.25 498.75,-295.25 498.75,-301.25 492.75,-307.25 486.75,-307.25"/>
<text xml:space="preserve" text-anchor="middle" x="400.38" y="-284.2" font-family="Times,serif" font-size="14.00">97: get_temperatures_from_api()</text>
</g>
<!-- node_ad335be4&#45;&gt;node_01d0324b -->
<g id="edge4" class="edge">
<title>node_ad335be4&#45;&gt;node_01d0324b</title>
<path fill="none" stroke="#f0e442" stroke-width="2" d="M203.95,-289.25C203.95,-289.25 288.64,-289.25 288.64,-289.25"/>
<polygon fill="#f0e442" stroke="#f0e442" stroke-width="2" points="288.64,-292.75 298.64,-289.25 288.64,-285.75 288.64,-292.75"/>
</g>
<!-- node_ffc64347 -->
<g id="node8" class="node">
<title>node_ffc64347</title>
<path fill="#6db33f" stroke="black" d="M452.62,-361.25C452.62,-361.25 348.12,-361.25 348.12,-361.25 342.12,-361.25 336.12,-355.25 336.12,-349.25 336.12,-349.25 336.12,-337.25 336.12,-337.25 336.12,-331.25 342.12,-325.25 348.12,-325.25 348.12,-325.25 452.62,-325.25 452.62,-325.25 458.62,-325.25 464.62,-331.25 464.62,-337.25 464.62,-337.25 464.62,-349.25 464.62,-349.25 464.62,-355.25 458.62,-361.25 452.62,-361.25"/>
<text xml:space="preserve" text-anchor="middle" x="400.38" y="-338.2" font-family="Times,serif" font-size="14.00">138: temp_at_time()</text>
</g>
<!-- node_ad335be4&#45;&gt;node_ffc64347 -->
<g id="edge5" class="edge">
<title>node_ad335be4&#45;&gt;node_ffc64347</title>
<path fill="none" stroke="#f0e442" stroke-width="2" d="M132.5,-307.53C132.5,-323.2 132.5,-343.25 132.5,-343.25 132.5,-343.25 322.84,-343.25 322.84,-343.25"/>
<polygon fill="#f0e442" stroke="#f0e442" stroke-width="2" points="322.84,-346.75 332.84,-343.25 322.84,-339.75 322.84,-346.75"/>
</g>
</g>
</svg>
