<?xml version="1.0" encoding="UTF-8" standalone="no"?>
<!DOCTYPE svg PUBLIC "-//W3C//DTD SVG 1.1//EN"
 "http://www.w3.org/Graphics/SVG/1.1/DTD/svg11.dtd">
<!-- Generated by graphviz version 14.1.4 (20260321.0153)
 -->
<!-- Title: G Pages: 1 -->
<svg width="206pt" height="153pt"
 viewBox="0.00 0.00 206.00 153.00" xmlns="http://www.w3.org/2000/svg" xmlns:xlink="http://www.w3.org/1999/xlink">
<g id="graph0" class="graph" transform="scale(1 1) rotate(0) translate(4 149)">
<title>G</title><style>.edge>path:hover{stroke-width:8}</style>
<polygon fill="white" stroke="none" points="-4,4 -4,-149 202,-149 202,4 -4,4"/>
<!-- numpy -->
<g id="node1" class="node">
<title>numpy</title><style>.edge>path:hover{stroke-width:8}</style>
<polygon fill="#c04040" stroke="black" points="54,-145 51,-149 30,-149 27,-145 0,-145 0,-109 54,-109 54,-145"/>
<text xml:space="preserve" text-anchor="middle" x="27" y="-123.12" font-family="Helvetica,sans-Serif" font-size="10.00" fill="#ffffff">numpy</text>
</g>
<!-- src_weather -->
<g id="node4" class="node">
<title>src_weather</title><style>.edge>path:hover{stroke-width:8}</style>
<ellipse fill="#7546a4" stroke="black" cx="99" cy="-18" rx="39.64" ry="18"/>
<text xml:space="preserve" text-anchor="middle" x="99" y="-14.12" font-family="Helvetica,sans-Serif" font-size="10.00" fill="#ffffff">src.weather</text>
</g>
<!-- numpy&#45;&gt;src_weather -->
<g id="edge1" class="edge">
<title>numpy&#45;&gt;src_weather</title><style>.edge>path:hover{stroke-width:8}</style>
<path fill="none" stroke="black" d="M54.22,-112.02C74.61,-100.62 99,-84.56 99,-73"/>
<path fill="none" stroke="black" d="M99,-72C99,-64.06 99,-55.44 99,-47.52"/>
<polygon fill="#c04040" stroke="black" points="102.5,-47.7 99,-37.7 95.5,-47.7 102.5,-47.7"/>
</g>
<!-- pandas -->
<g id="node2" class="node">
<title>pandas</title><style>.edge>path:hover{stroke-width:8}</style>
<polygon fill="#80c040" stroke="black" points="126,-145 123,-149 102,-149 99,-145 72,-145 72,-109 126,-109 126,-145"/>
<text xml:space="preserve" text-anchor="middle" x="99" y="-123.12" font-family="Helvetica,sans-Serif" font-size="10.00" fill="#000000">pandas</text>
</g>
<!-- pandas&#45;&gt;src_weather -->
<g id="edge2" class="edge">
<title>pandas&#45;&gt;src_weather</title><style>.edge>path:hover{stroke-width:8}</style>
<path fill="none" stroke="black" d="M99,-108.81C99,-98.44 99,-84.96 99,-73"/>
</g>
<!-- requests -->
<g id="node3" class="node">
<title>requests</title><style>.edge>path:hover{stroke-width:8}</style>
<polygon fill="#40bfc0" stroke="black" points="198,-145 195,-149 174,-149 171,-145 144,-145 144,-109 198,-109 198,-145"/>
<text xml:space="preserve" text-anchor="middle" x="171" y="-123.12" font-family="Helvetica,sans-Serif" font-size="10.00" fill="#000000">requests</text>
</g>
<!-- requests&#45;&gt;src_weather -->
<g id="edge3" class="edge">
<title>requests&#45;&gt;src_weather</title><style>.edge>path:hover{stroke-width:8}</style>
<path fill="none" stroke="black" d="M143.78,-112.02C123.39,-100.62 99,-84.56 99,-73"/>
</g>
</g>
</svg>
